<?xml version="1.0" standalone="no"?>
<!DOCTYPE svg PUBLIC "-//W3C//DTD SVG 20010904//EN"
 "http://www.w3.org/TR/2001/REC-SVG-20010904/DTD/svg10.dtd">
<svg version="1.0" xmlns="http://www.w3.org/2000/svg"
 width="250.000000pt" height="250.000000pt" viewBox="0 0 250.000000 250.000000"
 preserveAspectRatio="xMidYMid meet">

<g transform="translate(0.000000,250.000000) scale(0.100000,-0.100000)"
fill="#000000" stroke="none">
<path d="M1340 1340 c0 -22 -1 -23 -24 -14 -9 3 -13 11 -9 17 4 6 1 7 -6 3 -7
-5 -10 -14 -7 -22 3 -8 1 -14 -4 -14 -5 0 -7 -7 -4 -15 4 -8 10 -15 16 -15 5
0 7 4 3 9 -3 5 -1 12 5 16 5 3 10 -1 10 -9 0 -9 6 -16 13 -17 6 -1 1 -4 -13
-8 -18 -5 -26 -16 -31 -41 -5 -21 -3 -37 3 -41 6 -4 4 -9 -5 -12 -8 -3 -18 -3
-21 0 -3 3 -32 7 -65 9 -53 3 -61 1 -74 -20 -13 -20 -14 -27 -3 -42 7 -9 23
-18 35 -19 23 -2 29 10 9 18 -8 4 -9 6 -2 6 6 1 17 -6 24 -14 21 -25 29 -17
25 23 -4 34 -4 35 4 7 8 -29 9 -29 11 -5 2 21 3 22 7 5 7 -27 23 -46 34 -39
12 7 49 -14 49 -27 0 -6 -7 -9 -15 -5 -10 3 -15 -1 -15 -14 0 -25 17 -35 35
-20 12 10 15 9 15 -3 0 -8 7 -18 16 -21 9 -4 14 -9 11 -12 -3 -3 -12 -2 -19 2
-7 5 -24 10 -37 12 -22 3 -23 0 -18 -28 5 -23 4 -29 -6 -23 -7 4 -6 -3 4 -17
17 -26 45 -34 68 -19 13 8 12 9 -6 6 -19 -4 -20 -2 -10 13 6 10 14 17 18 14
12 -7 21 32 18 74 -3 40 24 95 34 70 4 -9 6 -7 6 5 1 9 5 17 11 17 5 0 7 -6 4
-14 -5 -13 1 -14 89 -7 5 1 5 6 2 11 -3 6 -1 10 4 10 6 0 11 -5 11 -12 0 -6 3
-8 6 -5 4 4 1 14 -7 24 -12 15 -12 16 6 10 19 -7 19 -6 2 7 -10 8 -17 18 -16
23 4 13 -29 16 -60 5 -19 -7 -37 -6 -59 4 -34 14 -47 45 -40 95 3 22 1 29 -9
25 -7 -3 -13 -1 -13 4 0 6 5 10 10 10 6 0 10 5 10 11 0 5 -5 7 -12 3 -8 -5 -9
-2 -5 9 3 10 2 17 -3 17 -6 0 -10 -9 -10 -20z m-16 -125 c-4 -8 -8 -15 -10
-15 -2 0 -4 7 -4 15 0 8 4 15 10 15 5 0 7 -7 4 -15z m43 -19 c-4 -10 -1 -13 9
-9 7 3 14 0 14 -6 0 -14 -27 -15 -35 -1 -3 6 -3 15 0 20 9 15 18 12 12 -4z
m-110 -38 c-3 -8 -6 -5 -6 6 -1 11 2 17 5 13 3 -3 4 -12 1 -19z m271 10 c-6
-28 -38 -31 -38 -5 0 8 3 8 9 -1 7 -11 9 -11 14 2 8 19 18 21 15 4z m-182 -19
c9 -16 -10 -31 -30 -23 -13 5 -14 9 -5 20 14 17 25 18 35 3z m30 -54 c-9 -7
-16 -21 -16 -31 -1 -18 -1 -18 -12 0 -9 16 -7 23 11 37 11 9 22 23 22 31 1 7
4 4 6 -6 3 -11 -2 -25 -11 -31z m-50 -144 c-4 -6 -13 -11 -19 -11 -8 0 -7 3 2
9 8 5 10 14 6 22 -6 11 -5 11 5 2 7 -6 9 -16 6 -22z"/>
<path d="M2128 1016 c-31 -19 -90 -57 -131 -85 -285 -195 -579 -341 -685 -341
-31 0 -62 17 -62 34 0 24 82 90 175 141 103 58 185 130 185 164 0 18 -4 22
-17 18 -10 -4 -72 -22 -138 -42 -405 -123 -456 -143 -570 -227 -74 -54 -132
-129 -179 -228 -50 -105 -84 -270 -54 -257 170 74 231 89 463 112 189 18 254
29 343 57 124 38 236 106 349 211 125 116 403 439 403 468 0 17 -25 9 -82 -25z"/>
</g>
</svg>
