<?xml version="1.0" standalone="no"?>
<!DOCTYPE svg PUBLIC "-//W3C//DTD SVG 20010904//EN"
 "http://www.w3.org/TR/2001/REC-SVG-20010904/DTD/svg10.dtd">
<svg version="1.0" xmlns="http://www.w3.org/2000/svg"
 width="750.000000pt" height="420.000000pt" viewBox="0 0 750.000000 420.000000"
 preserveAspectRatio="xMidYMid meet">

<g transform="translate(0.000000,420.000000) scale(0.100000,-0.100000)"
fill="#000000" stroke="none">
<path d="M2097 3863 c-13 -80 -37 -211 -50 -273 -8 -36 -27 -119 -41 -185 -15
-66 -31 -136 -36 -155 -6 -19 -28 -116 -50 -215 -23 -99 -53 -218 -67 -265
-69 -224 -179 -375 -290 -396 -80 -15 -174 20 -242 89 l-33 35 11 93 c20 159
28 171 60 97 23 -52 52 -80 111 -107 106 -48 224 -2 281 111 67 131 -45 308
-196 308 -62 0 -126 -29 -156 -69 -27 -37 -46 -40 -51 -8 -2 18 -10 23 -47 25
-53 4 -63 -4 -72 -65 -25 -176 -32 -203 -51 -203 -11 0 -23 12 -30 28 -6 15
-28 63 -48 107 -21 44 -54 121 -74 170 -21 50 -43 104 -50 120 -7 17 -23 56
-36 89 -16 40 -33 64 -54 77 -31 19 -31 19 -34 -1 -2 -11 3 -42 12 -68 43
-132 100 -381 137 -592 38 -217 70 -500 63 -544 -18 -99 -59 -183 -114 -229
-26 -22 -42 -27 -86 -27 -109 0 -178 63 -263 237 -29 59 -56 115 -61 123 -4 8
-24 58 -44 110 -20 52 -43 108 -51 123 -8 16 -15 34 -15 42 0 7 -7 18 -16 26
-13 10 -25 8 -74 -17 -63 -31 -73 -49 -40 -79 27 -25 82 -177 114 -315 60
-268 91 -738 68 -1030 -7 -74 -16 -193 -22 -265 -6 -71 -14 -150 -19 -175 -21
-101 -34 -176 -35 -199 -1 -32 53 -66 89 -57 34 9 31 32 -5 45 -26 9 -30 15
-30 48 0 21 5 58 11 83 6 25 13 65 14 90 2 25 10 97 19 160 21 155 31 632 18
840 -21 321 -75 578 -158 750 -15 32 -19 49 -12 58 19 22 36 13 56 -30 38 -84
82 -191 82 -199 0 -16 63 -142 112 -225 76 -130 166 -194 273 -194 55 0 118
42 156 104 16 25 36 46 44 46 14 0 16 -39 14 -341 -1 -373 -2 -378 -57 -325
-57 54 -139 47 -204 -17 -77 -75 -138 -201 -201 -417 -26 -89 -65 -262 -68
-300 -4 -53 0 -104 7 -97 11 11 43 111 44 134 0 20 14 77 64 263 69 258 175
430 265 430 48 0 131 -75 133 -118 1 -35 -32 -340 -47 -432 -45 -274 -45 -270
16 -273 l33 -2 26 150 c55 313 79 383 109 327 15 -29 77 -198 102 -282 33
-107 36 -109 103 -71 31 18 56 38 56 45 0 7 -11 33 -23 57 -32 59 -82 221
-107 344 -11 55 -25 119 -30 143 -18 79 -12 112 37 202 25 47 54 101 64 121
26 52 115 147 160 170 68 34 141 21 219 -41 33 -26 140 -170 163 -220 4 -8 19
-35 33 -60 58 -100 127 -244 214 -448 29 -67 56 -124 60 -127 9 -6 60 33 60
45 0 5 -11 33 -24 62 -13 29 -31 76 -41 103 -9 28 -21 59 -26 70 -26 60 -88
343 -113 515 -28 196 -28 196 -13 208 8 7 95 16 208 23 107 6 235 16 284 23
l90 12 5 54 5 54 89 18 c85 17 115 33 97 51 -8 8 -152 -6 -183 -18 -10 -4 -23
4 -38 24 -39 56 -39 57 220 156 19 7 69 27 110 43 41 17 101 41 133 53 68 27
83 41 63 58 -12 10 -22 9 -48 -3 -18 -8 -58 -24 -88 -36 -30 -11 -64 -24 -75
-29 -11 -5 -45 -19 -75 -31 -30 -11 -64 -25 -75 -29 -11 -5 -40 -16 -65 -26
-25 -9 -66 -26 -91 -37 -52 -23 -85 -18 -95 15 -5 17 5 32 60 82 36 33 66 65
66 72 0 31 -27 20 -93 -40 -46 -41 -77 -62 -87 -58 -33 13 -100 62 -100 72 0
6 28 43 62 83 115 130 252 281 260 284 5 2 8 12 8 23 0 25 -34 25 -52 0 -7
-10 -84 -97 -171 -194 l-159 -176 -96 6 c-53 3 -101 9 -106 13 -4 5 -1 125 8
271 17 263 15 288 -17 276 -11 -4 -16 -34 -21 -124 -5 -98 -16 -385 -16 -431
0 -9 -10 -12 -27 -10 l-28 3 2 320 c3 436 46 919 109 1219 22 105 21 106 -30
106 -42 0 -43 -1 -49 -37z m-793 -984 c-1 -13 -7 -58 -13 -99 -7 -41 -16 -103
-21 -138 -9 -72 -14 -81 -38 -65 -18 11 -19 33 -4 103 6 25 18 83 27 129 8 46
18 88 21 93 11 17 29 1 28 -23z m1018 -673 c76 -18 153 -64 209 -123 55 -58
109 -168 109 -222 0 -35 -3 -39 -31 -45 -17 -3 -61 -6 -96 -6 -36 0 -142 -7
-236 -16 -140 -12 -172 -13 -183 -2 -17 17 -38 378 -23 393 32 33 158 43 251
21z m-1042 -1118 c0 -86 76 -363 126 -460 16 -32 6 -58 -22 -58 -16 0 -24 17
-50 105 -21 74 -102 276 -115 289 -13 14 -11 38 8 101 12 40 22 55 35 55 14 0
18 -8 18 -32z"/>
<path d="M5930 2463 c0 -60 -3 -139 -7 -176 l-6 -68 -216 6 -216 5 0 112 0
111 -65 53 c-36 29 -70 53 -76 53 -7 1 -14 -124 -22 -381 -7 -211 -15 -416
-18 -455 -7 -86 -6 -86 88 -44 l65 30 6 83 c4 46 7 120 7 166 0 58 4 82 13 83
35 2 254 -4 337 -10 l94 -6 -2 -130 c-2 -71 -5 -138 -8 -147 -7 -23 31 -38
112 -45 l62 -5 7 81 c4 45 4 130 0 189 l-7 108 52 57 c28 31 49 61 45 67 -3 5
-24 10 -45 10 -21 0 -41 4 -45 9 -3 5 -6 54 -7 108 0 54 -5 109 -10 123 -10
27 -106 119 -125 120 -10 0 -13 -28 -13 -107z"/>
<path d="M3952 2548 c-7 -7 -12 -15 -12 -19 0 -9 -229 -390 -244 -407 -7 -7
-43 -15 -80 -19 -65 -6 -69 -8 -92 -44 -38 -60 -34 -67 46 -75 39 -3 70 -10
70 -15 0 -5 -11 -28 -24 -51 -13 -24 -37 -69 -55 -100 -17 -32 -28 -58 -24
-59 4 0 31 -2 58 -4 60 -5 66 -2 94 50 11 22 38 69 59 104 l37 64 140 -2 c77
-1 170 -4 206 -7 l67 -6 97 -155 c108 -170 88 -156 185 -137 17 3 30 7 30 10
0 6 -157 260 -200 324 -20 30 -39 60 -41 65 -5 12 -125 208 -209 340 -32 50
-65 105 -74 123 -19 37 -18 36 -34 20z m96 -321 c34 -68 62 -129 62 -137 0
-10 -17 -12 -82 -7 -46 4 -109 7 -140 7 -36 0 -58 4 -58 11 0 6 24 52 54 103
30 50 60 103 67 119 7 15 17 27 23 27 7 0 40 -55 74 -123z"/>
<path d="M4775 2546 c-88 -22 -170 -79 -201 -137 -34 -66 -8 -168 56 -217 48
-37 76 -49 243 -101 117 -37 177 -89 177 -152 0 -42 -38 -104 -79 -127 -51
-29 -164 -45 -211 -30 -58 18 -130 51 -142 65 -17 20 -33 15 -48 -14 -8 -16
-21 -36 -28 -45 -19 -22 -6 -39 56 -75 71 -42 121 -55 232 -63 147 -11 212 11
332 112 15 13 39 49 54 82 22 49 26 67 21 115 -14 129 -85 203 -259 269 -140
53 -197 82 -215 109 -12 18 -11 24 11 49 24 28 26 29 128 29 78 0 111 -4 134
-17 44 -24 56 -8 52 73 l-3 64 -40 8 c-70 15 -217 17 -270 3z"/>
<path d="M6519 2318 l-134 -223 -67 0 c-37 0 -68 -2 -71 -5 -9 -11 -57 -97
-57 -103 0 -4 33 -7 73 -7 41 0 77 -3 80 -7 4 -3 -2 -20 -12 -37 -39 -65 -91
-164 -91 -175 0 -7 23 -11 59 -11 l59 0 63 110 64 109 80 1 c44 0 136 -5 203
-12 106 -10 126 -14 138 -32 9 -12 52 -77 96 -146 44 -69 82 -127 84 -128 1
-2 32 -1 69 3 37 4 63 10 57 14 -5 3 -67 101 -138 216 -303 495 -400 649 -410
652 -6 2 -71 -97 -145 -219z m222 -90 c33 -68 66 -128 71 -135 13 -17 0 -36
-21 -28 -9 3 -70 11 -136 17 -66 5 -121 11 -123 13 -6 5 136 255 144 255 2 0
31 -55 65 -122z"/>
<path d="M2299 2423 c-17 -41 -23 -119 -11 -127 18 -11 43 39 49 98 5 48 3 56
-11 56 -9 0 -21 -12 -27 -27z"/>
<path d="M781 2213 c-79 -39 -108 -146 -58 -221 75 -115 241 -87 277 47 33
125 -102 232 -219 174z"/>
<path d="M3278 1914 c-4 -3 -33 -10 -65 -14 -32 -4 -107 -18 -168 -29 -60 -12
-137 -26 -171 -31 -86 -13 -139 -32 -139 -50 0 -18 59 -17 155 4 36 8 110 22
165 32 211 36 260 49 260 70 0 18 -25 31 -37 18z"/>
<path d="M3066 1685 c-15 -24 -35 -49 -44 -54 -14 -7 -17 -19 -14 -45 5 -42
23 -46 46 -11 13 20 25 25 60 25 38 0 47 -4 70 -35 27 -35 56 -46 56 -21 0 7
-6 19 -14 25 -8 7 -36 46 -62 87 -26 41 -53 74 -59 74 -7 0 -25 -20 -39 -45z
m72 -29 c5 -25 -12 -39 -37 -31 -14 4 -21 15 -21 31 0 22 4 25 27 22 18 -2 29
-10 31 -22z"/>
<path d="M2530 1690 c-45 -42 -31 -63 68 -100 62 -24 31 -77 -38 -66 -35 5
-40 4 -40 -13 0 -22 19 -31 67 -31 39 0 93 45 93 77 0 25 -47 69 -82 77 -40 9
-39 46 0 46 35 0 45 9 31 27 -19 23 -65 15 -99 -17z"/>
<path d="M2729 1708 c-3 -7 -3 -55 -1 -106 3 -81 6 -93 20 -90 11 2 19 16 22
43 l5 40 50 0 c50 0 50 0 55 -35 4 -27 10 -35 25 -35 18 0 20 7 22 67 2 81 -8
122 -30 126 -12 3 -17 -3 -17 -20 0 -34 -18 -48 -62 -48 -28 0 -40 5 -44 18
-14 44 -38 65 -45 40z"/>
<path d="M2299 1624 c-12 -26 -30 -49 -41 -52 -13 -3 -18 -14 -18 -38 0 -45
16 -51 49 -20 41 39 90 36 132 -9 30 -32 59 -46 59 -28 0 3 -17 29 -38 57 -21
28 -50 70 -63 93 -31 56 -52 55 -80 -3z m69 -30 c3 -23 -18 -37 -43 -28 -16 6
-20 35 -8 48 14 14 48 1 51 -20z"/>
</g>
</svg>
