<?xml version="1.0" standalone="no"?>
<!DOCTYPE svg PUBLIC "-//W3C//DTD SVG 20010904//EN"
 "http://www.w3.org/TR/2001/REC-SVG-20010904/DTD/svg10.dtd">
<svg version="1.0" xmlns="http://www.w3.org/2000/svg"
 width="700.000000pt" height="500.000000pt" viewBox="0 0 700.000000 500.000000"
 preserveAspectRatio="xMidYMid meet">

<g transform="translate(0.000000,500.000000) scale(0.100000,-0.100000)"
fill="#000000" stroke="none">
<path d="M0 2500 l0 -2500 3500 0 3500 0 0 2500 0 2500 -3500 0 -3500 0 0
-2500z m2820 906 c124 -24 219 -66 315 -139 59 -45 135 -120 135 -133 0 -10
-94 -93 -208 -183 l-53 -42 -57 51 c-31 28 -90 67 -130 87 -62 31 -86 37 -156
41 -96 5 -147 -8 -176 -45 -24 -31 -26 -90 -4 -121 33 -47 143 -96 274 -123
89 -17 253 -71 282 -92 14 -11 34 -34 44 -52 15 -28 16 -36 5 -49 -8 -9 -27
-16 -43 -16 -16 0 -31 -6 -34 -15 -5 -12 -19 -14 -68 -10 -33 2 -105 7 -158
11 l-98 6 0 28 c0 16 -4 32 -10 35 -5 3 -10 15 -10 25 0 11 -9 24 -19 30 -23
12 -81 14 -81 3 1 -25 14 -53 26 -53 7 0 20 -13 28 -28 l14 -28 -77 0 -78 1 8
29 c5 16 18 39 29 51 11 12 20 24 20 28 0 16 -41 5 -60 -15 -12 -13 -20 -18
-18 -11 2 6 -1 13 -7 15 -14 4 -19 -60 -5 -76 8 -10 6 -15 -6 -20 -11 -4 -14
-13 -10 -31 5 -20 3 -25 -13 -25 -32 0 -46 28 -43 89 1 31 -3 67 -10 80 -11
20 -10 25 7 37 10 8 14 14 8 14 -6 0 -23 -16 -38 -36 -27 -35 -27 -35 -6 -41
12 -3 21 -13 21 -24 0 -27 -19 -23 -30 6 -13 33 -35 41 -63 22 -24 -15 -52 -8
-69 17 -6 8 -8 8 -8 0 0 -6 7 -17 15 -24 8 -7 15 -17 15 -23 0 -19 -89 77
-103 113 -33 79 -39 119 -35 217 3 91 7 107 41 176 60 121 179 206 337 241 86
19 267 20 360 2z m-1338 -96 c75 -212 198 -579 198 -589 0 -6 -6 -11 -12 -11
-7 0 -25 -21 -40 -48 l-27 -47 -85 -1 c-83 0 -85 0 -91 25 -4 17 -1 29 9 37
22 15 20 22 -6 26 -15 2 -24 11 -26 26 -4 29 -27 38 -47 19 -10 -11 -13 -30
-11 -63 l4 -47 -23 38 c-13 20 -33 73 -46 116 -13 47 -28 79 -36 79 -7 0 -13
-8 -13 -18 0 -24 -49 -156 -59 -160 -5 -2 -7 -11 -4 -21 6 -22 -24 -54 -44
-47 -8 3 -18 6 -22 6 -3 0 -15 16 -26 36 -21 40 -61 62 -79 44 -8 -8 -7 -15 4
-23 22 -17 60 -81 60 -101 0 -9 10 -26 22 -38 16 -16 21 -34 22 -81 l1 -60 65
-4 c35 -2 69 -8 74 -13 6 -6 18 -10 28 -10 17 0 17 -2 -4 -30 -26 -36 -45 -38
-60 -6 -6 14 -17 27 -24 30 -13 5 -124 -108 -124 -127 0 -5 -17 -30 -38 -56
-46 -55 -138 -188 -176 -253 -21 -36 -34 -48 -51 -48 -32 0 -56 10 -49 21 7
12 -15 41 -26 34 -5 -3 -11 -1 -15 5 -3 5 -2 10 4 10 6 0 0 10 -12 23 -12 12
-30 21 -39 19 -14 -3 -15 -8 -5 -30 6 -15 20 -37 31 -50 28 -31 11 -41 -54
-32 -30 4 -61 5 -67 3 -7 -3 -13 0 -13 5 0 6 10 12 22 14 14 2 24 13 29 30 5
20 4 25 -7 21 -17 -6 -18 17 -3 51 11 23 13 24 33 11 19 -13 23 -12 33 4 9 15
9 23 -2 37 -13 18 -14 18 -30 -1 -16 -19 -16 -19 -11 10 2 17 16 62 30 100 24
67 27 70 57 68 48 -2 56 -16 34 -60 -24 -51 -29 -104 -11 -128 21 -29 28 -15
28 54 0 48 4 63 22 79 11 12 87 52 169 92 81 39 147 73 147 76 0 11 -74 -10
-114 -31 -77 -43 -80 -42 -126 20 -43 58 -48 60 -104 39 -20 -8 -21 15 -1 53
8 15 17 40 20 55 4 19 14 30 39 38 19 6 36 15 38 20 6 18 28 -6 34 -38 5 -26
3 -32 -10 -32 -30 0 -14 -35 17 -38 24 -3 28 -7 23 -25 -2 -12 2 -31 10 -42
13 -17 17 -18 35 -7 12 8 18 9 14 3 -9 -16 47 -13 69 4 11 8 16 21 13 30 -4 9
-1 15 9 15 12 0 15 11 12 55 -3 54 -3 55 -35 57 -70 4 -78 3 -76 -9 2 -9 -7
-9 -35 1 -31 11 -38 18 -40 44 -2 20 6 48 19 72 21 36 26 40 51 35 23 -6 28
-3 28 13 0 15 -9 21 -32 25 -48 7 -86 -31 -94 -95 -4 -29 -12 -48 -19 -48 -7
0 -15 -7 -19 -15 -3 -8 -10 -15 -16 -15 -12 0 -14 57 -1 64 4 3 11 20 14 38 5
35 74 239 188 557 38 107 69 196 69 198 0 2 86 2 191 1 l191 -3 30 -85z m4488
-27 c74 -208 160 -461 160 -472 0 -6 -6 -11 -14 -11 -8 0 -28 -16 -45 -35 -27
-32 -30 -40 -24 -80 3 -29 2 -45 -5 -45 -6 0 -13 6 -16 13 -4 8 -8 9 -11 1 -3
-6 -18 -9 -33 -7 -25 4 -26 3 -9 -10 21 -18 22 -37 2 -37 -9 0 -18 -7 -21 -15
-9 -22 -24 -18 -24 5 0 11 -6 20 -14 20 -8 0 -23 12 -34 27 -23 31 -47 23 -38
-13 4 -13 2 -24 -3 -24 -15 0 -29 24 -35 65 -8 45 -11 42 69 47 19 1 35 6 35
10 0 5 -28 7 -62 6 l-63 -3 -20 62 c-11 34 -25 67 -32 74 -12 12 -22 -4 -53
-88 -12 -32 -30 -45 -30 -22 0 8 -4 8 -15 -1 -8 -6 -19 -9 -25 -5 -5 3 -10 1
-10 -4 0 -6 9 -11 20 -11 22 0 27 -15 8 -26 -6 -4 -22 6 -37 24 -20 24 -31 30
-48 26 -13 -4 -23 -2 -23 3 0 7 -43 9 -60 3 -3 -1 -8 -2 -12 -1 -13 2 -9 -18
8 -45 20 -29 14 -40 -14 -25 -27 14 -37 58 -18 76 8 9 18 24 21 35 7 23 18 25
46 10 16 -9 19 -7 19 8 0 25 -61 72 -94 72 -14 0 -27 4 -30 9 -5 8 91 305 155
479 8 22 11 22 198 22 l189 0 42 -117z m-2028 -170 l3 -278 250 0 250 0 0 275
0 275 203 3 204 2 -3 -451 c-2 -248 -7 -453 -11 -456 -5 -2 -8 3 -8 11 0 19
-11 21 -28 4 -9 -9 -12 -9 -12 1 0 7 9 15 20 18 24 6 28 53 5 53 -8 0 -15 -4
-15 -10 0 -16 -22 -12 -36 8 -18 23 -17 29 4 28 32 -2 27 19 -5 22 -45 4 -41
19 10 42 l42 20 -36 0 c-49 0 -73 -27 -71 -82 1 -27 9 -50 24 -65 l21 -23 -21
0 c-11 0 -24 -4 -27 -10 -12 -20 -27 -10 -21 14 5 19 -1 32 -24 54 -17 17 -30
38 -30 46 0 18 -25 22 -35 6 -9 -14 -24 -3 -35 26 -9 24 -10 24 -43 6 -19 -9
-34 -23 -33 -31 1 -7 -9 -17 -21 -21 -19 -8 -23 -3 -37 40 -9 27 -15 53 -14
57 3 8 -5 13 -20 13 -5 0 -24 -21 -43 -47 -29 -41 -34 -56 -34 -106 l0 -58
-140 4 c-77 3 -144 5 -150 6 -5 0 -32 -1 -58 -3 -44 -3 -52 0 -83 30 -21 19
-41 31 -50 27 -8 -3 -20 0 -28 6 -7 6 -16 8 -19 5 -3 -3 -11 -3 -17 1 -18 11
7 34 46 41 19 3 31 10 28 15 -7 12 27 69 42 69 9 0 9 6 1 25 -7 15 -20 25 -32
25 -12 0 -26 5 -33 12 -6 6 -15 8 -19 4 -5 -4 3 -17 17 -28 l25 -21 -40 6
c-38 6 -42 4 -59 -23 -21 -36 -66 -43 -66 -10 0 12 -5 17 -13 14 -8 -3 -29 9
-46 26 -18 16 -35 30 -37 30 -2 0 -7 -14 -11 -30 -22 -83 -28 -21 -33 308 -3
189 -3 346 -1 348 2 2 94 4 203 4 l198 0 2 -277z m1422 -382 c3 -5 -1 -11 -9
-15 -9 -3 -15 0 -15 9 0 16 16 20 24 6z m161 -1 c4 7 23 -4 51 -30 24 -22 48
-40 55 -40 16 0 6 -35 -11 -36 -8 -1 -21 -2 -28 -3 -7 0 -10 -5 -7 -11 3 -5
-3 -10 -14 -10 -32 0 -34 18 -5 43 l27 24 -33 17 c-27 13 -35 14 -41 4 -12
-19 -44 15 -35 37 5 14 9 15 20 6 10 -9 16 -9 21 -1z m631 -53 c26 -28 44 -57
48 -82 4 -21 14 -47 21 -59 13 -20 52 -126 96 -261 11 -33 23 -67 28 -75 5 -9
12 -31 16 -50 4 -19 12 -44 18 -55 24 -42 36 -90 27 -99 -6 -6 -10 -21 -10
-34 0 -18 4 -22 19 -17 14 4 21 0 26 -14 3 -12 4 -25 0 -30 -3 -6 -89 -10
-200 -10 l-194 -1 -16 52 c-21 70 -20 75 17 80 31 5 58 0 103 -18 20 -8 20 -8
1 20 -23 37 -67 86 -76 86 -4 0 -6 -10 -6 -22 1 -20 -4 -23 -33 -23 -29 0 -36
4 -42 28 -5 19 -4 27 6 27 8 0 11 -7 8 -20 -4 -15 0 -20 16 -20 14 0 21 6 21
20 0 12 7 20 16 20 23 0 13 33 -14 45 -27 12 -28 19 -1 46 18 18 19 25 10 45
-9 19 -8 26 3 30 8 3 12 13 9 25 -4 15 -2 18 11 13 9 -3 16 -1 16 6 0 6 -4 8
-10 5 -5 -3 -10 2 -10 13 0 10 11 24 25 30 40 18 94 101 95 144 0 42 -12 55
-30 33 -7 -8 -17 -15 -22 -15 -6 0 -5 7 2 15 15 19 6 32 -12 17 -10 -7 -19 -5
-37 9 -31 25 -13 51 30 42 17 -3 29 -1 29 5 0 14 -18 25 -43 26 -16 1 -22 9
-24 34 -6 45 14 41 63 -11z m-4464 -9 c-9 -9 -12 -7 -12 12 0 19 3 21 12 12 9
-9 9 -15 0 -24z m2118 4 c-1 -18 -20 -34 -34 -29 -14 5 -16 21 -7 55 2 6 41
-19 41 -26z m1600 18 c0 -5 -2 -10 -4 -10 -3 0 -8 5 -11 10 -3 6 -1 10 4 10 6
0 11 -4 11 -10z m-1745 -50 c21 -22 44 -40 51 -40 15 0 25 -25 18 -45 -13 -33
-74 -14 -74 24 0 18 -3 22 -9 13 -4 -7 -6 -24 -3 -37 4 -21 1 -24 -24 -21 -15
2 -30 8 -32 15 -2 6 3 9 12 5 9 -3 16 -2 17 2 0 5 3 28 5 50 4 32 1 43 -11 48
-15 6 -12 26 4 26 4 0 25 -18 46 -40z m1780 10 c3 -5 -1 -10 -10 -10 -9 0 -13
5 -10 10 3 6 8 10 10 10 2 0 7 -4 10 -10z m95 -5 c0 -8 -9 -15 -20 -15 -11 0
-20 7 -20 15 0 8 9 15 20 15 11 0 20 -7 20 -15z m-3275 -5 c4 -6 13 -5 26 3
16 10 21 9 28 -2 11 -17 -10 -44 -23 -30 -6 5 -18 9 -27 9 -9 0 -22 7 -29 15
-10 12 -10 15 3 15 9 0 19 -4 22 -10z m3116 -58 c-14 -5 -15 -32 -1 -32 6 0
10 6 10 14 0 16 54 41 69 31 6 -3 11 -18 11 -32 0 -14 11 -38 25 -55 32 -38
32 -58 0 -58 -22 0 -25 -5 -31 -59 -9 -78 -19 -93 -43 -63 -13 14 -30 22 -51
22 -17 0 -41 5 -53 12 -12 6 -43 19 -69 28 l-47 16 14 28 c8 16 15 37 15 47 0
25 25 35 53 22 80 -37 107 -41 107 -17 0 12 -6 15 -22 11 -31 -8 -54 11 -32
27 14 10 10 15 -26 31 -30 14 -40 23 -38 38 4 25 38 48 45 30 7 -18 33 -16 40
3 5 13 9 11 21 -12 10 -20 11 -29 3 -32z m-836 38 c-3 -5 -10 -10 -16 -10 -5
0 -9 5 -9 10 0 6 7 10 16 10 8 0 12 -4 9 -10z m1003 -22 c19 -19 14 -35 -14
-41 -27 -5 -41 11 -30 38 7 18 28 19 44 3z m522 -13 c0 -14 5 -25 11 -25 6 0
8 -7 5 -16 -4 -10 0 -18 11 -20 29 -8 26 -61 -7 -120 -16 -30 -26 -54 -23 -54
3 0 -10 -17 -31 -37 -37 -38 -52 -72 -43 -97 3 -8 0 -21 -6 -30 -10 -14 -17
-15 -47 -5 -19 6 -45 23 -57 37 -26 28 -30 62 -9 62 7 0 17 10 21 23 7 18 9
13 15 -28 4 -27 8 -42 8 -33 1 9 8 21 15 25 14 9 52 98 52 124 0 8 8 24 19 34
12 12 14 21 7 23 -12 4 -15 32 -3 32 4 0 13 -5 20 -12 15 -15 29 17 14 35 -7
8 -7 18 -2 27 6 8 7 30 4 48 -5 25 -3 32 10 32 10 0 16 -9 16 -25z m-1565 -43
c0 -57 0 -58 -28 -54 -15 2 -30 8 -33 13 -3 5 -16 9 -30 9 -29 0 -30 10 -4 41
l19 24 1 -28 c0 -25 2 -27 20 -17 11 6 20 17 20 25 0 11 25 45 34 45 1 0 2
-26 1 -58z m1110 41 c-4 -10 -12 -30 -17 -45 -10 -29 -22 -35 -33 -18 -3 6 0
17 9 25 8 8 18 24 21 35 3 11 11 20 17 20 6 0 7 -8 3 -17z m-4485 -5 c0 -7 -4
-19 -9 -26 -7 -11 -10 -10 -15 3 -10 26 -7 35 9 35 8 0 15 -6 15 -12z m4760
-17 c0 -37 -19 -50 -36 -26 -12 16 -11 21 3 37 23 26 33 22 33 -11z m-4488 7
c-7 -7 -12 -23 -13 -37 l-1 -26 -7 25 c-10 32 -3 50 17 50 12 0 13 -3 4 -12z
m142 0 c19 -61 18 -64 -31 -63 -38 0 -48 4 -56 22 -7 16 -6 27 3 38 15 18 79
20 84 3z m1108 -6 c16 -23 45 -34 53 -22 7 12 65 13 81 2 6 -4 11 -21 11 -39
0 -30 -1 -31 -26 -20 -14 6 -29 16 -32 20 -4 5 -27 13 -52 18 -52 9 -94 38
-74 51 18 12 25 10 39 -10z m920 -4 c7 -19 -2 -38 -18 -38 -8 0 -14 8 -14 18
0 30 23 44 32 20z m2455 -5 c5 -15 -33 -23 -46 -10 -6 6 -11 15 -11 19 0 12
53 4 57 -9z m-3522 -4 c10 -15 -1 -23 -20 -15 -9 3 -13 10 -10 16 8 13 22 13
30 -1z m59 -4 c-6 -16 -44 -21 -44 -7 0 14 12 22 31 22 12 0 16 -5 13 -15z
m341 -7 c30 -13 55 -29 55 -36 0 -8 9 -16 20 -19 15 -4 20 -14 20 -43 0 -23 7
-43 18 -53 16 -15 20 -15 52 4 18 11 44 19 56 16 13 -2 25 2 28 8 6 17 83 17
116 0 32 -16 40 -33 40 -81 0 -34 -13 -46 -23 -20 -3 8 -27 15 -59 18 -55 6
-78 2 -78 -13 0 -4 7 -6 15 -3 20 8 19 -11 -1 -42 -10 -14 -23 -23 -30 -20
-15 6 -36 -25 -53 -76 -8 -25 -19 -38 -30 -38 -11 0 -29 -20 -46 -52 -16 -29
-41 -73 -57 -97 -15 -25 -28 -51 -28 -58 0 -21 40 -15 89 15 67 41 110 57 122
45 6 -6 3 -15 -8 -25 -29 -24 -174 -79 -222 -83 l-44 -4 7 47 c4 26 11 100 15
165 5 65 12 122 17 126 12 11 132 89 183 120 40 25 69 61 33 43 -9 -5 -35 -18
-57 -28 -22 -10 -51 -26 -64 -36 -33 -25 -53 -23 -49 5 2 15 10 22 25 22 33 0
34 9 2 27 -28 16 -29 16 -39 -3 -10 -18 -13 -17 -58 19 -30 25 -74 48 -121 63
-40 13 -81 29 -90 37 -14 12 -10 13 26 8 23 -3 54 -11 70 -17 15 -7 45 -13 66
-15 37 -2 38 -1 32 24 -3 15 -13 32 -22 39 -15 12 -10 33 7 33 5 0 34 -10 65
-22z m2389 16 c9 -3 16 -13 16 -21 0 -12 -7 -14 -27 -8 -34 8 -37 11 -28 24 7
12 17 14 39 5z m-1494 -38 c0 -30 22 -76 37 -76 17 0 26 -18 19 -37 -5 -12 -9
-13 -21 -3 -28 23 -50 4 -50 -45 0 -25 3 -45 6 -45 8 0 22 40 20 58 -3 22 14
12 36 -22 24 -37 24 -63 3 -76 -8 -5 -11 -12 -6 -17 4 -4 12 0 17 9 15 28 50
43 60 27 4 -8 3 -19 -3 -27 -8 -9 -8 -16 0 -24 7 -7 11 -23 11 -38 -1 -16 -3
-19 -6 -7 -5 20 -8 20 -34 7 -15 -9 -21 -7 -25 5 -3 8 -11 15 -18 15 -6 0 -19
12 -29 28 l-18 27 6 -47 c5 -39 3 -48 -9 -48 -8 0 -18 5 -21 10 -10 16 -35 12
-42 -7 -10 -26 -91 -104 -98 -94 -3 5 -3 16 1 24 3 8 -4 31 -15 51 -14 25 -18
42 -12 54 5 9 19 37 31 62 13 25 31 54 41 65 10 11 21 33 25 48 3 16 12 31 20
34 7 2 10 11 7 19 -3 7 2 17 12 20 9 4 14 13 10 22 -7 18 22 65 35 57 6 -4 10
-16 10 -29z m-2136 8 c5 -12 2 -15 -10 -10 -8 3 -18 6 -20 6 -3 0 -2 5 1 10 9
15 22 12 29 -6z m936 -4 c-8 -6 -22 -10 -30 -10 -8 0 -4 6 10 13 27 15 44 12
20 -3z m658 -2 c7 -7 12 -16 12 -20 0 -15 -15 -8 -28 12 -13 22 -3 27 16 8z
m2729 -4 c-3 -3 -12 -4 -19 -1 -8 3 -5 6 6 6 11 1 17 -2 13 -5z m-2417 -19 c0
-9 7 -18 15 -21 8 -4 15 -14 15 -24 0 -19 47 -56 58 -45 6 6 -2 13 -38 35 -8
4 -12 12 -8 16 4 4 14 1 23 -6 8 -7 15 -9 15 -5 0 5 9 0 20 -10 23 -21 26 -45
6 -45 -8 0 -14 -8 -13 -18 1 -19 -41 -82 -55 -82 -12 0 -10 10 13 47 21 33 21
35 3 48 -11 8 -21 15 -24 15 -15 1 -27 -43 -29 -105 -2 -72 -20 -118 -22 -54
0 18 -2 87 -5 152 -4 101 -3 117 11 117 8 0 15 -7 15 -15z m2305 5 c3 -5 1
-10 -4 -10 -6 0 -11 5 -11 10 0 6 2 10 4 10 3 0 8 -4 11 -10z m75 -2 c0 -7 -4
-19 -9 -27 -14 -22 -2 -39 21 -33 17 4 20 2 15 -12 -4 -10 -7 -21 -7 -25 0
-10 -62 -1 -77 11 -17 14 -17 49 0 42 7 -2 17 8 24 26 11 30 33 42 33 18z
m-4980 -28 c13 -7 21 -7 25 0 10 16 35 12 29 -5 -4 -9 -19 -15 -39 -15 -18 0
-38 7 -45 15 -15 18 1 21 30 5z m586 -13 c8 3 14 -1 14 -9 0 -20 -131 -19
-138 1 -3 10 2 13 22 9 15 -3 30 0 37 8 9 11 14 11 31 0 11 -8 27 -12 34 -9z
m4434 9 c0 -3 -4 -8 -10 -11 -5 -3 -10 -1 -10 4 0 6 5 11 10 11 6 0 10 -2 10
-4z m-4770 -26 c0 -5 -19 -9 -42 -9 l-43 2 40 7 c22 4 41 8 43 9 1 0 2 -3 2
-9z m120 -5 c0 -15 22 -25 56 -25 15 0 24 -6 24 -15 0 -12 -9 -15 -39 -11 -43
5 -131 42 -131 55 0 4 20 8 45 9 31 0 45 -4 45 -13z m4265 5 c3 -5 1 -10 -4
-10 -6 0 -11 -11 -11 -25 0 -19 5 -25 21 -25 14 0 19 -5 16 -14 -5 -13 31 -56
47 -56 5 0 6 9 3 20 -3 11 -1 22 4 25 4 3 6 12 2 20 -3 8 0 15 5 15 17 0 25
-20 13 -34 -6 -7 -9 -21 -5 -30 3 -9 1 -16 -5 -16 -19 0 -12 -28 8 -35 22 -7
33 -39 19 -53 -13 -13 -38 -4 -38 12 0 6 -8 19 -17 28 -10 9 -27 28 -37 43
l-19 28 -14 -28 c-8 -15 -17 -25 -19 -22 -12 11 -12 152 -1 159 16 10 25 10
32 -2z m-3825 -11 c0 -5 -7 -12 -15 -15 -18 -7 -48 3 -42 13 7 11 57 13 57 2z
m4060 -5 c0 -8 -4 -12 -10 -9 -5 3 -10 10 -10 16 0 5 5 9 10 9 6 0 10 -7 10
-16z m-65 -4 c3 -5 -1 -10 -10 -10 -9 0 -13 5 -10 10 3 6 8 10 10 10 2 0 7 -4
10 -10z m-1845 -20 c0 -5 -2 -10 -4 -10 -3 0 -8 5 -11 10 -3 6 -1 10 4 10 6 0
11 -4 11 -10z m-2132 -21 c2 -11 -16 -13 -90 -11 -105 3 -135 10 -103 22 35
13 190 4 193 -11z m2983 -10 c25 -27 45 -84 39 -113 -1 -5 4 -12 11 -16 9 -6
8 -12 -4 -25 -10 -9 -17 -25 -17 -35 0 -12 -16 -26 -44 -40 -41 -20 -47 -20
-73 -6 -26 14 -26 15 -6 16 31 0 38 17 12 30 -19 11 -19 13 -5 29 9 10 13 21
9 25 -12 12 -12 99 -1 114 7 8 7 12 -1 12 -6 0 -11 -4 -11 -10 0 -5 -7 -7 -15
-4 -22 9 -18 33 8 44 41 16 68 11 98 -21z m1059 5 c0 -8 -4 -12 -10 -9 -5 3
-10 10 -10 16 0 5 5 9 10 9 6 0 10 -7 10 -16z m70 1 c0 -8 -4 -15 -10 -15 -5
0 -10 7 -10 15 0 8 5 15 10 15 6 0 10 -7 10 -15z m-2300 -17 c0 -18 -2 -20 -9
-8 -6 8 -7 18 -5 22 9 14 14 9 14 -14z m290 -30 c0 -4 -5 -8 -11 -8 -5 0 -8 4
-4 9 3 5 1 12 -5 16 -5 3 -10 12 -10 18 1 13 30 -22 30 -35z m-1615 22 c3 -5
-3 -10 -14 -10 -11 0 -23 5 -26 10 -3 6 3 10 14 10 11 0 23 -4 26 -10z m2238
3 c4 -3 -2 -13 -14 -21 -24 -17 -37 -9 -19 13 14 16 23 19 33 8z m-3072 -20
c1 -5 3 -23 5 -41 3 -42 7 -46 31 -33 11 5 30 11 44 13 13 2 34 9 46 16 12 7
29 12 37 12 8 0 19 7 24 16 7 13 10 13 20 2 8 -10 4 -40 -17 -118 -34 -125
-44 -152 -65 -169 -9 -7 -16 -20 -16 -28 0 -35 -23 -2 -47 67 -14 41 -34 85
-45 97 -13 13 -18 30 -15 42 3 14 -1 22 -13 26 -21 7 -34 85 -16 97 14 10 26
10 27 1z m769 -12 c0 -10 -7 -21 -15 -25 -17 -6 -21 -36 -5 -36 6 0 10 -16 10
-35 0 -35 0 -35 -44 -35 -38 0 -48 -5 -71 -32 l-26 -33 -29 35 c-17 19 -30 40
-30 46 0 7 33 33 73 59 39 26 81 53 92 61 29 19 45 17 45 -5z m-1031 -29 c-13
-11 -29 -18 -35 -15 -7 3 -20 -9 -28 -26 -22 -41 -36 -48 -36 -16 0 20 4 26
14 22 10 -4 13 -1 9 9 -3 7 0 14 5 14 6 0 17 6 24 13 26 23 53 35 62 26 5 -5
-1 -16 -15 -27z m196 -24 c0 -25 6 -42 19 -51 31 -23 14 -47 -34 -47 -30 0
-45 6 -62 25 -16 19 -25 22 -35 14 -17 -15 -30 17 -16 39 14 24 85 62 108 59
16 -2 20 -9 20 -39z m340 12 c3 -5 -1 -10 -9 -10 -9 0 -16 5 -16 10 0 6 4 10
9 10 6 0 13 -4 16 -10z m4125 -7 c8 -7 -32 -33 -41 -27 -5 3 -9 14 -9 25 0 16
4 19 23 13 12 -3 24 -9 27 -11z m-1206 -20 c-10 -40 -14 -41 -14 -5 0 18 5 32
10 32 6 0 8 -11 4 -27z m747 -20 c8 -7 23 -13 32 -13 23 0 21 -13 -8 -56 -14
-20 -25 -47 -25 -60 0 -12 -4 -26 -10 -29 -5 -3 -19 -28 -31 -55 -20 -47 -59
-94 -59 -72 0 6 8 31 19 54 15 35 61 142 88 206 3 6 -2 12 -10 12 -18 0 -66
-81 -74 -125 -7 -35 -51 -127 -66 -136 -15 -10 1 -42 18 -35 23 9 18 -22 -6
-34 -17 -10 -21 -8 -26 8 -5 20 -21 28 -73 41 -14 3 -26 15 -28 25 -3 16 0 18
22 12 14 -3 38 -9 52 -12 20 -5 25 -3 22 7 -2 7 -19 17 -36 21 -34 9 -38 18
-21 50 14 26 4 35 -18 16 -35 -30 -50 -29 -57 4 -8 38 8 58 43 57 23 -2 24 -2
4 -6 -23 -4 -29 -14 -16 -26 3 -4 11 -3 17 1 6 5 30 14 53 20 23 7 44 20 47
30 3 9 16 22 28 27 13 6 25 21 27 35 l3 25 -20 -25 c-15 -18 -24 -22 -32 -14
-7 7 -5 16 10 29 11 10 20 24 20 31 0 7 6 14 12 16 17 6 79 -12 99 -29z m204
-6 c19 -15 13 -37 -11 -37 -8 0 -14 -4 -14 -10 0 -5 -11 -10 -24 -10 -24 0
-26 8 -10 58 5 16 35 15 59 -1z m-3062 -21 c31 -13 60 -26 63 -29 3 -3 -14
-31 -39 -64 -24 -32 -64 -92 -89 -133 -43 -70 -48 -75 -78 -73 -48 2 -57 15
-41 66 8 23 15 71 15 106 2 64 2 64 51 108 27 23 52 43 55 43 3 0 31 -11 63
-24z m2707 16 c0 -5 -11 -14 -25 -20 -28 -13 -34 -32 -10 -32 13 0 14 -4 5
-20 -13 -24 -20 -25 -44 -7 -15 11 -16 17 -6 33 19 31 80 65 80 46z m610 -8
c0 -8 -5 -12 -10 -9 -6 4 -8 11 -5 16 9 14 15 11 15 -7z m-4600 -14 c0 -6 6
-10 13 -9 22 3 37 -1 37 -9 0 -4 -23 -9 -52 -10 -51 -2 -51 -2 -33 18 20 22
35 26 35 10z m2328 -36 c-4 -3 -12 5 -18 18 -12 22 -12 22 6 6 10 -10 15 -20
12 -24z m-1659 -95 l41 -120 -20 -30 c-24 -32 -20 -31 -107 -29 -102 2 -116 9
-125 61 -5 24 -4 67 2 94 5 28 12 67 15 88 6 40 28 58 48 38 9 -9 8 -14 -3
-21 -8 -5 -12 -11 -9 -15 3 -3 26 8 50 25 24 16 49 30 55 30 7 0 30 -54 53
-121z m1354 104 c-7 -2 -13 -13 -13 -24 0 -10 -5 -19 -11 -19 -6 0 -8 7 -5 16
3 9 6 20 6 25 0 5 8 9 18 8 10 0 12 -3 5 -6z m627 -13 c0 -13 -28 -25 -38 -16
-3 4 0 11 8 16 20 13 30 12 30 0z m-330 -31 c0 -5 -4 -9 -10 -9 -5 0 -10 7
-10 16 0 8 5 12 10 9 6 -3 10 -10 10 -16z m210 0 c0 -5 -4 -9 -10 -9 -5 0 -10
7 -10 16 0 8 5 12 10 9 6 -3 10 -10 10 -16z m1060 -41 c0 -33 -24 -68 -47 -68
-7 0 -18 -12 -23 -26 -9 -22 -33 -31 -31 -11 1 4 1 14 1 22 0 9 11 20 25 25
33 13 33 40 -1 40 -21 0 -25 4 -22 23 2 16 11 23 31 25 15 2 27 8 27 13 0 6 8
6 20 -1 13 -7 20 -21 20 -42z m-921 -32 c-9 -8 -10 -7 -5 7 3 10 7 24 7 30 1
7 3 4 6 -7 3 -10 -1 -23 -8 -30z m1519 6 c4 -26 -19 -30 -39 -6 -10 13 -10 17
2 25 20 13 34 6 37 -19z m-3173 -14 c-4 -18 -12 -36 -17 -39 -5 -3 -3 -9 6
-12 9 -4 16 -13 16 -22 0 -13 -4 -14 -20 -5 -22 12 -26 44 -10 84 14 38 33 33
25 -6z m1625 2 c0 -5 -5 -10 -11 -10 -5 0 -7 5 -4 10 3 6 8 10 11 10 2 0 4 -4
4 -10z m1519 -44 c9 -11 8 -26 -4 -64 -16 -48 -18 -50 -62 -57 -57 -8 -82 9
-36 25 29 11 37 21 62 83 12 30 23 34 40 13z m-2664 -93 c-5 -15 -7 -34 -6
-40 1 -10 -19 -13 -74 -13 -41 0 -75 4 -75 9 0 15 42 41 67 41 12 0 35 11 50
24 33 29 49 20 38 -21z m1975 27 c0 -5 -5 -10 -11 -10 -5 0 -7 5 -4 10 3 6 8
10 11 10 2 0 4 -4 4 -10z m-810 -4 c0 -3 -4 -8 -10 -11 -5 -3 -10 -1 -10 4 0
6 5 11 10 11 6 0 10 -2 10 -4z m20 -36 c0 -5 -2 -10 -4 -10 -3 0 -8 5 -11 10
-3 6 -1 10 4 10 6 0 11 -4 11 -10z"/>
<path d="M2291 2754 c0 -11 3 -14 6 -6 3 7 2 16 -1 19 -3 4 -6 -2 -5 -13z"/>
<path d="M2240 2720 c0 -5 5 -10 10 -10 6 0 10 5 10 10 0 6 -4 10 -10 10 -5 0
-10 -4 -10 -10z"/>
<path d="M2690 2675 c0 -8 5 -15 10 -15 6 0 10 7 10 15 0 8 -4 15 -10 15 -5 0
-10 -7 -10 -15z"/>
<path d="M2736 2671 c-3 -5 -2 -20 3 -33 6 -12 10 -21 11 -18 8 28 8 50 1 55
-5 3 -12 1 -15 -4z"/>
<path d="M3002 2658 c3 -7 15 -15 28 -16 21 -3 22 -2 11 12 -16 19 -44 21 -39
4z"/>
<path d="M2970 2600 c-9 -6 -10 -10 -3 -10 6 0 15 5 18 10 8 12 4 12 -15 0z"/>
<path d="M1460 2795 c12 -13 27 -22 32 -19 5 3 -2 14 -16 25 -34 27 -44 24
-16 -6z"/>
<path d="M1581 2689 c-13 -38 -13 -39 -2 -39 9 0 24 60 17 67 -2 2 -9 -10 -15
-28z"/>
<path d="M928 2599 c-25 -14 -22 -29 6 -29 23 0 41 22 29 34 -8 8 -15 7 -35
-5z"/>
<path d="M992 2593 c4 -22 48 -31 48 -10 0 14 -20 27 -42 27 -5 0 -8 -8 -6
-17z"/>
<path d="M5650 2846 c-32 -14 -59 -46 -60 -69 0 -15 3 -15 20 -5 11 7 20 17
20 23 0 5 12 19 28 31 32 26 28 36 -8 20z"/>
<path d="M5825 2770 c-3 -6 1 -13 10 -16 19 -8 30 0 20 15 -8 14 -22 14 -30 1z"/>
<path d="M5920 2760 c0 -5 7 -10 15 -10 8 0 15 5 15 10 0 6 -7 10 -15 10 -8 0
-15 -4 -15 -10z"/>
<path d="M6010 2760 c0 -6 7 -10 15 -10 8 0 15 2 15 4 0 2 -7 6 -15 10 -8 3
-15 1 -15 -4z"/>
<path d="M5945 2709 c-11 -16 3 -23 19 -10 8 7 20 10 26 6 5 -3 10 -1 10 4 0
14 -47 14 -55 0z"/>
<path d="M5904 2652 c8 -8 19 -11 25 -8 20 13 12 26 -14 24 -21 -2 -23 -4 -11
-16z"/>
<path d="M3777 2854 c-4 -4 -4 -10 -1 -15 6 -10 34 0 34 12 0 10 -24 12 -33 3z"/>
<path d="M3872 2838 c-12 -12 -17 -68 -6 -68 13 0 33 35 34 58 0 24 -10 28
-28 10z"/>
<path d="M4477 2753 c-4 -3 -7 -11 -7 -17 0 -6 5 -5 12 2 6 6 9 14 7 17 -3 3
-9 2 -12 -2z"/>
<path d="M4507 2703 c-4 -3 -7 -11 -7 -17 0 -6 5 -5 12 2 6 6 9 14 7 17 -3 3
-9 2 -12 -2z"/>
<path d="M3897 2664 c-10 -14 -17 -30 -15 -36 2 -6 12 1 22 16 22 35 17 52 -7
20z"/>
<path d="M4806 2644 c-9 -23 -2 -28 13 -10 7 8 8 17 3 20 -6 3 -13 -1 -16 -10z"/>
<path d="M6133 2284 c0 -16 13 -19 21 -5 3 5 0 11 -7 14 -8 3 -14 -1 -14 -9z"/>
<path d="M6086 2273 c-11 -11 -6 -23 9 -23 8 0 15 4 15 9 0 13 -16 22 -24 14z"/>
<path d="M6100 2201 c0 -5 5 -13 10 -16 6 -3 10 -2 10 4 0 5 -4 13 -10 16 -5
3 -10 2 -10 -4z"/>
<path d="M6220 2140 c0 -9 39 -25 45 -18 2 2 -7 8 -21 15 -13 6 -24 7 -24 3z"/>
<path d="M3700 2576 c0 -8 5 -18 10 -21 6 -3 10 1 10 9 0 8 -4 18 -10 21 -5 3
-10 -1 -10 -9z"/>
<path d="M5390 2446 c0 -9 5 -16 10 -16 6 0 10 4 10 9 0 6 -4 13 -10 16 -5 3
-10 -1 -10 -9z"/>
<path d="M6050 2516 c0 -9 7 -16 15 -16 8 0 15 -7 15 -16 0 -8 5 -12 10 -9 7
4 8 11 1 18 -5 7 -9 17 -10 22 0 17 -31 18 -31 1z"/>
<path d="M3640 2210 c0 -12 42 -30 68 -30 14 0 14 2 2 14 -20 18 -70 30 -70
16z"/>
<path d="M4720 2316 c0 -28 17 -37 43 -24 21 11 22 34 1 42 -30 12 -44 6 -44
-18z"/>
<path d="M4730 2260 c-13 -8 -12 -10 3 -10 9 0 17 5 17 10 0 12 -1 12 -20 0z"/>
<path d="M4741 2207 c-6 -8 -8 -17 -4 -20 7 -8 33 11 33 24 0 13 -16 11 -29
-4z"/>
<path d="M1737 2108 c-2 -7 -2 -27 0 -44 3 -17 0 -34 -5 -38 -14 -9 25 -76 44
-76 17 0 18 22 2 39 -7 6 -13 34 -13 61 0 49 -18 86 -28 58z"/>
</g>
</svg>
