<?xml version="1.0" standalone="no"?>
<!DOCTYPE svg PUBLIC "-//W3C//DTD SVG 20010904//EN"
 "http://www.w3.org/TR/2001/REC-SVG-20010904/DTD/svg10.dtd">
<svg version="1.0" xmlns="http://www.w3.org/2000/svg"
 width="262.000000pt" height="192.000000pt" viewBox="0 0 262.000000 192.000000"
 preserveAspectRatio="xMidYMid meet">

<g transform="translate(0.000000,192.000000) scale(0.100000,-0.100000)"
fill="#000000" stroke="none">
<path d="M1137 1911 c-26 -3 -48 -10 -48 -16 -1 -5 2 -47 6 -92 l7 -83 31 0
c18 0 55 3 83 6 44 6 52 10 61 35 10 25 16 29 51 29 35 0 41 -3 51 -30 5 -16
15 -30 20 -30 16 0 14 6 -21 103 -22 57 -38 87 -48 87 -9 0 -28 -31 -50 -86
l-35 -86 -57 -5 c-55 -3 -58 -2 -64 22 -8 34 2 43 51 47 56 4 50 23 -6 19 -41
-2 -47 0 -52 20 -8 30 -1 39 31 39 39 0 73 11 66 21 -3 5 -11 8 -17 7 -7 0
-33 -4 -60 -7z m212 -62 c6 -18 11 -34 11 -35 0 -2 -13 -4 -30 -4 -16 0 -30 2
-30 4 0 14 24 66 30 66 4 0 13 -14 19 -31z"/>
<path d="M1444 1853 c-4 -32 -7 -74 -8 -93 -1 -34 -1 -34 53 -42 51 -8 71 -5
58 8 -3 3 -24 8 -47 11 l-42 6 7 66 c3 36 9 74 11 84 4 11 0 17 -10 17 -10 0
-17 -16 -22 -57z"/>
<path d="M1570 1891 c0 -7 6 -13 13 -15 49 -15 47 -9 26 -88 -22 -87 -22 -88
-6 -88 7 0 19 32 30 79 l18 80 34 -6 c62 -10 38 14 -26 26 -34 7 -67 15 -75
18 -8 3 -14 0 -14 -6z"/>
<path d="M1006 1865 c13 -54 11 -58 -35 -68 -48 -10 -61 -1 -61 41 0 13 -6 22
-15 22 -19 0 -19 5 6 -95 15 -59 26 -85 36 -85 10 0 13 6 9 16 -19 50 -18 64
6 73 58 22 70 19 82 -24 7 -22 16 -39 21 -37 13 3 13 4 -9 100 -13 53 -24 82
-33 82 -9 0 -11 -8 -7 -25z"/>
<path d="M1756 1841 c-21 -33 -63 -162 -54 -167 12 -8 13 -7 31 38 l16 37 38
-15 c21 -9 41 -18 45 -21 4 -2 1 -20 -7 -40 -18 -43 -18 -43 -2 -43 10 0 60
114 69 159 6 30 -19 19 -31 -14 -14 -39 -19 -41 -69 -23 -35 13 -37 27 -17 81
7 17 -9 25 -19 8z"/>
<path d="M650 1760 c0 -6 18 -46 40 -90 l40 -80 55 27 c30 15 55 31 55 35 0
13 -18 9 -60 -12 l-39 -20 -35 75 c-31 66 -56 95 -56 65z"/>
<path d="M1985 1663 c-55 -78 -64 -98 -44 -91 7 2 29 28 48 56 19 28 36 50 38
48 2 -2 -4 -35 -14 -74 -9 -40 -14 -75 -10 -79 4 -4 34 12 67 35 32 23 62 42
65 42 3 0 -10 -24 -30 -52 -37 -55 -41 -68 -25 -68 5 0 32 33 59 74 40 59 48
76 37 85 -9 8 -28 -1 -76 -34 -35 -25 -67 -45 -71 -45 -4 0 2 34 12 75 19 72
18 95 -1 95 -5 0 -30 -30 -55 -67z"/>
<path d="M530 1689 c0 -6 7 -51 16 -100 11 -58 21 -89 30 -89 9 0 11 10 7 33
-4 30 -1 36 28 55 28 17 36 19 49 8 26 -22 38 -27 45 -17 3 6 -28 35 -69 66
-72 53 -106 67 -106 44z m60 -41 c36 -26 37 -32 5 -46 -23 -10 -25 -9 -31 16
-3 15 -7 33 -10 40 -5 17 3 15 36 -10z"/>
<path d="M1180 1620 c-380 -53 -667 -249 -801 -547 -47 -104 -62 -198 -56
-333 8 -166 57 -303 152 -423 l45 -57 790 0 789 0 46 60 c52 68 105 169 130
250 25 81 31 276 11 370 -54 256 -267 491 -549 606 -157 63 -399 96 -557 74z
m96 -306 c8 3 14 1 14 -5 0 -6 6 -9 14 -6 9 4 12 0 9 -13 -3 -10 4 -27 16 -39
l21 -21 -21 0 c-15 0 -19 -5 -15 -15 3 -8 0 -15 -6 -15 -7 0 -6 -5 2 -15 11
-13 10 -15 -6 -14 -38 4 -54 -1 -55 -18 -1 -17 -2 -17 -6 0 -2 9 -13 17 -24
17 -11 0 -17 5 -14 10 9 14 -8 13 -23 -2 -7 -7 -12 -8 -12 -2 0 6 5 15 12 22
9 9 9 12 -1 12 -7 0 -11 6 -8 14 4 9 -3 17 -16 21 -22 7 -22 7 3 15 14 4 21 9
15 9 -5 1 -3 6 5 11 12 7 12 12 2 22 -17 17 -15 33 2 19 19 -16 66 -3 67 18 1
9 4 6 6 -7 3 -15 10 -22 19 -18z m-268 -77 c37 -39 44 -83 23 -132 -47 -106
-171 -67 -171 55 0 83 96 133 148 77z m777 -60 c20 -16 28 -35 32 -69 5 -42 3
-50 -25 -78 -42 -42 -90 -42 -126 1 -77 91 30 223 119 146z m-640 -196 c84
-88 105 -119 96 -145 -5 -12 -18 -22 -33 -24 -20 -2 -39 12 -97 74 -74 79 -92
114 -71 139 22 27 47 16 105 -44z m-286 32 c6 -10 11 -12 11 -5 0 8 22 12 75
12 l75 0 0 -28 c0 -16 9 -37 20 -47 18 -16 20 -31 20 -135 0 -98 -3 -119 -16
-124 -30 -12 -181 -7 -191 7 -6 6 -13 57 -17 112 -5 83 -4 104 9 123 31 43 7
21 -56 -53 -67 -79 -91 -94 -114 -75 -28 23 -15 56 56 143 74 90 106 108 128
70z m831 -53 c6 -25 6 -25 12 -2 8 29 48 30 55 1 5 -20 6 -20 17 3 25 50 58
30 157 -98 42 -54 43 -78 6 -90 -15 -5 -27 1 -45 22 -72 84 -124 137 -117 119
53 -140 123 -358 119 -368 -4 -11 -42 -16 -155 -21 -83 -3 -154 -4 -160 -1
-17 11 -9 51 46 215 30 90 53 165 51 167 -2 2 -19 -18 -39 -44 -51 -70 -81
-95 -109 -91 -43 6 -33 39 39 132 56 72 72 86 93 84 16 -2 26 -11 30 -28z
m-298 -147 c25 -22 23 -68 -3 -87 -15 -10 -19 -19 -12 -31 9 -15 11 -15 22 -1
8 9 19 16 26 16 8 0 22 11 33 25 22 28 62 34 62 10 0 -49 -66 -106 -105 -91
-8 3 -15 4 -15 2 0 -2 17 -47 39 -100 21 -53 36 -98 33 -101 -3 -3 -27 -5 -53
-5 -70 0 -78 -5 -73 -48 5 -44 -8 -67 -31 -58 -13 5 -16 16 -13 51 3 43 2 44
-27 47 -43 4 -42 29 5 126 22 46 40 84 40 85 0 1 -14 3 -31 3 -41 2 -88 49
-96 97 -5 34 -4 37 18 37 17 0 28 -10 39 -33 8 -17 25 -37 36 -42 12 -6 29
-16 37 -23 24 -20 30 15 7 38 -24 24 -26 57 -3 82 20 22 41 23 65 1z m-484
-175 c8 -8 12 -54 12 -139 0 -103 -3 -131 -16 -143 -19 -19 -36 -20 -52 -4
-13 13 -18 279 -5 291 11 11 48 8 61 -5z m150 -132 c3 -138 -3 -166 -34 -166
-7 0 -20 7 -28 16 -13 12 -16 40 -16 143 0 137 6 154 50 149 l25 -3 3 -139z
m772 -17 c6 -10 10 -42 10 -72 0 -60 -14 -81 -52 -75 -21 3 -23 8 -26 78 -2
60 0 77 13 87 20 14 42 7 55 -18z m-141 7 c7 -9 11 -41 9 -83 l-3 -68 -35 0
-35 0 -3 68 c-3 72 7 97 38 97 10 0 23 -6 29 -14z m-274 -106 c0 -35 -4 -45
-17 -48 -15 -3 -18 4 -18 48 0 44 3 51 18 48 13 -3 17 -13 17 -48z"/>
<path d="M420 1607 c0 -7 20 -33 45 -57 24 -24 43 -45 41 -47 -2 -2 -41 5 -86
17 -55 14 -86 18 -93 11 -11 -11 99 -140 121 -141 21 0 14 13 -35 62 -26 26
-45 49 -42 52 2 2 39 -5 81 -16 115 -31 122 -22 47 62 -61 69 -79 82 -79 57z"/>
<path d="M2176 1518 c-52 -60 -66 -83 -48 -83 10 0 122 125 122 136 0 21 -22
5 -74 -53z"/>
<path d="M2256 1494 c-20 -20 -20 -27 4 -74 24 -47 25 -66 4 -74 -35 -14 -72
32 -59 73 8 27 -12 36 -25 10 -9 -16 -9 -28 1 -50 24 -59 86 -78 114 -35 15
23 15 27 -4 65 -25 48 -26 70 -6 78 26 9 57 -27 51 -59 -7 -33 9 -46 23 -19
16 28 14 36 -15 70 -29 34 -63 40 -88 15z"/>
<path d="M254 1440 c-51 -21 -70 -95 -36 -136 61 -76 176 -49 176 42 0 63 -82
119 -140 94z m91 -45 c46 -45 23 -115 -37 -115 -34 0 -88 48 -88 77 0 61 79
85 125 38z"/>
<path d="M2370 1345 c-11 -13 -11 -26 0 -71 10 -39 10 -58 3 -65 -30 -30 -83
33 -63 72 6 11 8 25 4 31 -10 15 -34 -19 -34 -48 0 -32 47 -84 75 -84 35 0 58
27 49 59 -4 14 -8 42 -8 61 -1 28 3 35 19 35 26 0 47 -42 34 -68 -14 -25 -3
-35 18 -15 31 32 -12 108 -61 108 -13 0 -29 -7 -36 -15z"/>
<path d="M135 1280 c-4 -7 51 -44 148 -97 4 -2 12 -1 18 3 7 4 -3 16 -27 31
-74 46 -133 73 -139 63z"/>
<path d="M80 1164 c-35 -76 -34 -74 -16 -74 8 0 17 11 20 25 4 14 10 25 14 25
4 0 39 -13 77 -29 64 -27 85 -30 85 -13 0 4 -34 20 -75 37 -41 16 -75 33 -75
37 0 4 4 18 10 32 6 17 6 26 -1 26 -5 0 -23 -30 -39 -66z"/>
<path d="M2433 1171 c-46 -20 -83 -42 -83 -48 0 -17 -6 -18 91 23 96 42 96 41
83 53 -5 5 -45 -7 -91 -28z"/>
<path d="M2443 1106 c-57 -26 -71 -94 -29 -143 43 -50 143 -29 167 34 11 29
-3 84 -26 103 -22 18 -78 21 -112 6z m93 -24 c24 -16 34 -50 23 -75 -32 -69
-149 -56 -149 17 0 46 86 85 126 58z"/>
<path d="M115 1039 c-74 -11 -85 -15 -85 -31 0 -17 157 -124 167 -114 4 4 -5
17 -20 29 -23 19 -25 26 -19 57 6 28 13 36 37 40 15 3 30 11 33 18 4 14 -22
14 -113 1z m18 -70 c-4 -4 -24 2 -43 14 l-35 22 40 5 c33 4 41 2 43 -14 2 -10
0 -22 -5 -27z"/>
<path d="M2453 893 c-58 -7 -35 -22 38 -25 l71 -3 -66 -47 c-71 -51 -84 -78
-38 -78 60 0 162 13 162 21 0 4 -33 9 -72 11 l-73 3 68 48 c87 62 88 78 5 75
-35 0 -78 -3 -95 -5z"/>
<path d="M8 874 c-16 -16 7 -24 68 -24 35 0 64 -3 64 -7 0 -5 -32 -26 -70 -48
-38 -22 -70 -45 -70 -51 0 -12 75 -24 148 -24 31 0 42 4 40 13 -5 14 -7 14
-85 16 l-58 2 69 43 c38 25 73 52 78 60 8 14 0 16 -55 16 -36 0 -77 3 -93 6
-16 3 -32 2 -36 -2z"/>
<path d="M837 233 c-4 -3 -7 -17 -7 -30 0 -23 0 -23 -142 -24 -79 -1 -130 -4
-115 -6 31 -5 46 -28 28 -46 -8 -8 -11 -8 -11 1 0 7 -7 12 -15 12 -12 0 -10
-10 10 -50 14 -27 30 -50 35 -50 13 0 13 4 -2 35 -9 19 -9 28 0 37 7 7 12 22
12 35 0 14 6 23 15 23 12 0 15 -14 15 -65 0 -37 4 -65 10 -65 6 0 10 29 10 66
0 48 3 65 13 62 6 -3 14 -22 17 -44 4 -32 9 -40 29 -42 38 -6 57 -30 42 -54
-16 -25 -4 -39 14 -15 11 15 14 15 25 2 18 -22 32 -18 20 6 -9 15 -8 24 1 35
16 20 3 30 -17 13 -14 -11 -18 -11 -30 6 -20 27 -18 35 16 48 18 7 30 19 30
29 0 10 4 18 9 18 4 0 6 11 3 25 -2 14 0 25 6 25 12 0 24 -29 16 -41 -3 -5 0
-9 5 -9 7 0 11 -26 11 -65 0 -37 4 -65 10 -65 6 0 10 28 10 65 0 58 2 65 19
65 28 0 36 -18 21 -45 -17 -32 -6 -55 25 -55 16 0 25 -6 25 -15 0 -8 5 -15 10
-15 6 0 10 28 10 64 0 42 4 66 13 69 6 3 -19 6 -58 6 -67 1 -71 2 -87 31 -16
29 -37 38 -51 23z m-20 -79 c2 -6 -9 -14 -24 -17 -28 -5 -53 7 -53 25 0 13 73
5 77 -8z m183 -23 c0 -42 -14 -61 -33 -42 -8 8 -8 14 1 23 7 7 12 22 12 35 0
13 5 23 10 23 6 0 10 -18 10 -39z m-250 -27 c0 -8 -4 -12 -10 -9 -5 3 -10 13
-10 21 0 8 5 12 10 9 6 -3 10 -13 10 -21z"/>
<path d="M1684 223 c-3 -10 -10 -26 -15 -35 -5 -11 -5 -19 1 -23 6 -3 10 -33
10 -66 0 -33 4 -59 10 -59 6 0 10 28 10 65 0 58 2 65 20 65 15 0 20 -7 20 -25
0 -14 -5 -25 -10 -25 -7 0 -7 -6 0 -20 13 -24 30 -26 30 -4 0 29 25 8 28 -24
6 -58 22 -33 22 33 0 67 13 85 30 40 5 -14 14 -25 20 -25 19 0 10 -19 -10 -22
-19 -3 -19 -4 4 -33 13 -16 28 -27 32 -23 4 4 1 14 -6 23 -10 13 -10 19 4 33
9 10 16 31 16 45 0 15 5 27 10 27 6 0 10 -28 10 -65 0 -83 18 -85 22 -2 l3 62
43 3 c37 3 42 1 42 -17 0 -17 -6 -21 -30 -21 -32 0 -36 -6 -20 -30 9 -13 12
-13 21 3 17 29 29 19 29 -23 0 -22 5 -40 10 -40 6 0 10 26 10 58 0 32 5 63 12
70 9 9 -19 12 -128 12 l-140 0 -29 30 c-32 33 -73 40 -81 13z m76 -34 c0 -5
-13 -9 -30 -9 -22 0 -30 5 -30 18 0 10 3 21 6 25 8 7 54 -22 54 -34z m28 -47
c2 -15 -2 -22 -12 -22 -11 0 -16 9 -16 26 0 31 23 28 28 -4z m87 8 c3 -5 1
-10 -4 -10 -6 0 -11 5 -11 10 0 6 2 10 4 10 3 0 8 -4 11 -10z"/>
<path d="M1113 173 c21 -3 27 -10 27 -30 0 -21 -3 -23 -14 -14 -8 7 -16 8 -19
4 -6 -10 42 -93 54 -93 13 0 11 12 -6 34 -8 10 -12 23 -9 27 9 15 41 10 48 -6
3 -8 17 -20 31 -25 14 -5 25 -14 25 -20 0 -5 5 -10 10 -10 6 0 10 29 10 66 0
48 3 65 13 62 7 -3 13 -28 15 -66 4 -83 22 -80 22 4 l0 65 28 -3 c20 -2 28 -9
30 -28 3 -20 1 -22 -10 -12 -8 6 -18 9 -21 6 -9 -10 36 -94 50 -94 17 0 16 6
-3 35 -15 23 -15 25 1 31 11 5 23 0 34 -13 23 -28 45 -34 69 -17 13 9 23 11
27 4 3 -5 15 -10 26 -10 10 0 19 -7 19 -15 0 -8 5 -15 10 -15 6 0 10 26 10 58
0 32 5 63 12 70 9 9 -1 12 -48 12 -45 -1 -55 -3 -41 -11 25 -15 20 -41 -13
-67 -35 -27 -59 -21 -30 8 15 15 17 25 11 42 -8 23 -10 23 -202 24 -107 1
-182 -1 -166 -3z m132 -13 c3 -5 -3 -10 -13 -10 -11 0 -25 -7 -32 -15 -19 -23
-40 -18 -40 10 0 22 4 25 39 25 22 0 43 -4 46 -10z m175 1 c0 -5 3 -16 6 -25
4 -11 1 -16 -10 -16 -10 0 -16 9 -16 25 0 14 5 25 10 25 6 0 10 -4 10 -9z
m150 -30 c0 -34 -13 -61 -25 -49 -7 7 8 88 16 88 5 0 9 -18 9 -39z m-104 18
c3 -6 -1 -18 -10 -27 -10 -11 -16 -12 -16 -4 0 7 5 12 11 12 8 0 8 5 -1 15 -8
9 -9 15 -2 15 6 0 14 -5 18 -11z m-222 -27 c2 -4 1 -14 -4 -22 -7 -11 -12 -12
-21 -3 -6 6 -8 16 -5 22 8 13 23 14 30 3z"/>
</g>
</svg>
